<mxfile host="Electron" agent="Mozilla/5.0 (Macintosh; Intel Mac OS X 10_15_7) AppleWebKit/537.36 (KHTML, like Gecko) draw.io/24.7.8 Chrome/128.0.6613.36 Electron/32.0.1 Safari/537.36" version="24.7.8">
  <diagram name="Page-1" id="95VOIOgbA18Lx-qZPfnW">
    <mxGraphModel dx="1114" dy="824" grid="1" gridSize="10" guides="1" tooltips="1" connect="1" arrows="1" fold="1" page="1" pageScale="1" pageWidth="827" pageHeight="1169" math="0" shadow="0">
      <root>
        <mxCell id="0" />
        <mxCell id="1" parent="0" />
        <mxCell id="cb5u3TFGIO-7KyvCjyP1-1" value="&lt;div style=&quot;&quot;&gt;&lt;span style=&quot;font-size: 29px; background-color: initial;&quot;&gt;&lt;font color=&quot;#000000&quot;&gt;Navbar&lt;/font&gt;&lt;/span&gt;&lt;/div&gt;" style="rounded=0;whiteSpace=wrap;html=1;direction=west;fillColor=#dae8fc;strokeColor=#6c8ebf;align=center;" parent="1" vertex="1">
          <mxGeometry width="820" height="120" as="geometry" />
        </mxCell>
        <mxCell id="cb5u3TFGIO-7KyvCjyP1-3" value="Profile" style="ellipse;whiteSpace=wrap;html=1;aspect=fixed;" parent="1" vertex="1">
          <mxGeometry x="740" y="25" width="70" height="70" as="geometry" />
        </mxCell>
        <mxCell id="cb5u3TFGIO-7KyvCjyP1-4" value="Logo/Name" style="ellipse;whiteSpace=wrap;html=1;" parent="1" vertex="1">
          <mxGeometry x="30" y="25" width="140" height="70" as="geometry" />
        </mxCell>
        <mxCell id="cb5u3TFGIO-7KyvCjyP1-6" value="&lt;font style=&quot;font-size: 20px;&quot;&gt;Home/About/FAQ/LogIn&lt;/font&gt;" style="rounded=0;whiteSpace=wrap;html=1;" parent="1" vertex="1">
          <mxGeometry x="480" y="25" width="236" height="80" as="geometry" />
        </mxCell>
        <mxCell id="cb5u3TFGIO-7KyvCjyP1-7" value="&lt;font color=&quot;#000000&quot; style=&quot;font-size: 26px;&quot;&gt;Products&lt;/font&gt;&lt;div style=&quot;font-size: 21px;&quot;&gt;&lt;font style=&quot;font-size: 21px;&quot;&gt;&lt;div&gt;&lt;font color=&quot;#000000&quot;&gt;Clickable to enlarge image&lt;/font&gt;&lt;/div&gt;&lt;div&gt;&lt;font color=&quot;#000000&quot;&gt;View description/details&lt;/font&gt;&lt;/div&gt;&lt;div&gt;&lt;br&gt;&lt;/div&gt;&lt;/font&gt;&lt;/div&gt;" style="whiteSpace=wrap;html=1;aspect=fixed;fillColor=#dae8fc;strokeColor=#6c8ebf;" parent="1" vertex="1">
          <mxGeometry x="30" y="160" width="300" height="300" as="geometry" />
        </mxCell>
        <mxCell id="cb5u3TFGIO-7KyvCjyP1-8" value="&lt;font color=&quot;#000000&quot; style=&quot;font-size: 26px;&quot;&gt;Products&lt;/font&gt;&lt;div style=&quot;font-size: 21px;&quot;&gt;&lt;font color=&quot;#000000&quot; style=&quot;font-size: 21px;&quot;&gt;Clickable to enlarge image&lt;/font&gt;&lt;/div&gt;&lt;div style=&quot;font-size: 21px;&quot;&gt;&lt;font color=&quot;#000000&quot; style=&quot;font-size: 21px;&quot;&gt;View description/details&lt;/font&gt;&lt;/div&gt;&lt;div style=&quot;font-size: 21px;&quot;&gt;&lt;font style=&quot;font-size: 21px;&quot;&gt;&lt;br&gt;&lt;/font&gt;&lt;/div&gt;" style="whiteSpace=wrap;html=1;aspect=fixed;fillColor=#dae8fc;strokeColor=#6c8ebf;" parent="1" vertex="1">
          <mxGeometry x="448" y="160" width="300" height="300" as="geometry" />
        </mxCell>
        <mxCell id="cb5u3TFGIO-7KyvCjyP1-9" value="&lt;font color=&quot;#000000&quot; style=&quot;font-size: 26px;&quot;&gt;Products&lt;/font&gt;&lt;div style=&quot;font-size: 21px;&quot;&gt;&lt;font style=&quot;font-size: 21px;&quot;&gt;&lt;div&gt;&lt;font color=&quot;#000000&quot;&gt;Clickable to enlarge image&lt;/font&gt;&lt;/div&gt;&lt;div&gt;&lt;font color=&quot;#000000&quot;&gt;View description/details&lt;/font&gt;&lt;/div&gt;&lt;div&gt;&lt;br&gt;&lt;/div&gt;&lt;/font&gt;&lt;/div&gt;" style="whiteSpace=wrap;html=1;aspect=fixed;fillColor=#dae8fc;strokeColor=#6c8ebf;" parent="1" vertex="1">
          <mxGeometry x="30" y="530" width="300" height="300" as="geometry" />
        </mxCell>
        <mxCell id="cb5u3TFGIO-7KyvCjyP1-10" value="&lt;font color=&quot;#000000&quot; style=&quot;font-size: 26px;&quot;&gt;Products&lt;/font&gt;&lt;div style=&quot;font-size: 21px;&quot;&gt;&lt;font style=&quot;font-size: 21px;&quot;&gt;&lt;div&gt;&lt;font color=&quot;#000000&quot;&gt;Clickable to enlarge image&lt;/font&gt;&lt;/div&gt;&lt;div&gt;&lt;font color=&quot;#000000&quot;&gt;View description/details&lt;/font&gt;&lt;/div&gt;&lt;div&gt;&lt;br&gt;&lt;/div&gt;&lt;/font&gt;&lt;/div&gt;" style="whiteSpace=wrap;html=1;aspect=fixed;fillColor=#dae8fc;strokeColor=#6c8ebf;" parent="1" vertex="1">
          <mxGeometry x="448" y="530" width="300" height="300" as="geometry" />
        </mxCell>
        <mxCell id="cb5u3TFGIO-7KyvCjyP1-11" value="&lt;font style=&quot;font-size: 18px;&quot;&gt;I&#39;m interested&lt;/font&gt;" style="rounded=0;whiteSpace=wrap;html=1;fillColor=#1ba1e2;fontColor=#ffffff;strokeColor=#006EAF;" parent="1" vertex="1">
          <mxGeometry x="70" y="770" width="230" height="40" as="geometry" />
        </mxCell>
        <mxCell id="cb5u3TFGIO-7KyvCjyP1-12" value="&lt;font style=&quot;font-size: 18px;&quot;&gt;I&#39;m interested&lt;/font&gt;" style="rounded=0;whiteSpace=wrap;html=1;fillColor=#1ba1e2;fontColor=#ffffff;strokeColor=#006EAF;" parent="1" vertex="1">
          <mxGeometry x="483" y="770" width="230" height="40" as="geometry" />
        </mxCell>
        <mxCell id="cb5u3TFGIO-7KyvCjyP1-13" value="&lt;font style=&quot;font-size: 18px;&quot;&gt;I&#39;m interested&lt;/font&gt;" style="rounded=0;whiteSpace=wrap;html=1;fillColor=#1ba1e2;strokeColor=#006EAF;fontColor=#ffffff;" parent="1" vertex="1">
          <mxGeometry x="65" y="390" width="230" height="40" as="geometry" />
        </mxCell>
        <mxCell id="cb5u3TFGIO-7KyvCjyP1-14" value="&lt;font style=&quot;font-size: 18px;&quot;&gt;I&#39;m interested&lt;/font&gt;" style="rounded=0;whiteSpace=wrap;html=1;fillColor=#1ba1e2;strokeColor=#006EAF;fontColor=#ffffff;" parent="1" vertex="1">
          <mxGeometry x="483" y="390" width="230" height="40" as="geometry" />
        </mxCell>
      </root>
    </mxGraphModel>
  </diagram>
</mxfile>
